<svg width="27" height="18" fill="none" xmlns="http://www.w3.org/2000/svg"><g clip-path="url(#clip0)" fill="#fff"><path d="M19.8 7.442c-2.076 0-3.765-1.67-3.765-3.721C16.035 1.669 17.724 0 19.8 0s3.765 1.67 3.765 3.721c0 2.052-1.689 3.721-3.765 3.721zm0-5.068c-.773 0-1.402.604-1.402 1.347s.629 1.347 1.402 1.347c.773 0 1.402-.604 1.402-1.347s-.63-1.347-1.402-1.347zM25.818 18H1.182a1.19 1.19 0 01-.963-1.875L8.57 4.327a1.18 1.18 0 011.916-.015l5.875 8.037 3.412-3.326a1.178 1.178 0 011.766.136l5.189 6.897c.17.206.271.47.271.757A1.183 1.183 0 0125.818 18zM3.472 15.626h19.97l-2.982-3.964-3.425 3.34a1.178 1.178 0 01-1.775-.15L9.55 7.041l-6.078 8.585z"/></g><defs><clipPath id="clip0"><path fill="#fff" d="M0 0h27v18H0z"/></clipPath></defs></svg>